<svg id="visual" viewBox="0 0 600 900" width="600" height="900" xmlns="http://www.w3.org/2000/svg" xmlns:xlink="http://www.w3.org/1999/xlink" version="1.1"><rect x="0" y="0" width="600" height="900" fill="#001220"></rect><defs><linearGradient id="grad1_0" x1="0%" y1="0%" x2="100%" y2="100%"><stop offset="30%" stop-color="#001220" stop-opacity="1"></stop><stop offset="70%" stop-color="#001220" stop-opacity="1"></stop></linearGradient></defs><defs><linearGradient id="grad2_0" x1="0%" y1="0%" x2="100%" y2="100%"><stop offset="30%" stop-color="#001220" stop-opacity="1"></stop><stop offset="70%" stop-color="#001220" stop-opacity="1"></stop></linearGradient></defs><g transform="translate(600, 0)"><path d="M0 189.3C-40.9 188.9 -81.9 188.4 -94.6 163.9C-107.4 139.4 -92 90.8 -103.1 59.5C-114.1 28.2 -151.7 14.1 -189.3 0L0 0Z" fill="#FBAE3C"></path></g><g transform="translate(0, 900)"><path d="M0 -189.3C33.9 -184.8 67.8 -180.3 94.6 -163.9C121.5 -147.6 141.3 -119.3 155.9 -90C170.5 -60.7 179.9 -30.3 189.3 0L0 0Z" fill="#FBAE3C"></path></g></svg>